<svg width="23" height="26" viewBox="0 0 23 26" fill="none" xmlns="http://www.w3.org/2000/svg">
<path fill-rule="evenodd" clip-rule="evenodd" d="M9.95041 1.20759L1.20783 9.94968C0.824917 10.3324 0.521159 10.7868 0.313915 11.2869C0.10667 11.787 0 12.3231 0 12.8644C0 13.4058 0.10667 13.9419 0.313915 14.442C0.521159 14.9421 0.824917 15.3965 1.20783 15.7792L9.95041 24.5218C10.3331 24.9046 10.7875 25.2083 11.2875 25.4155C11.7876 25.6227 12.3236 25.7294 12.8649 25.7294C13.4062 25.7294 13.9422 25.6227 14.4423 25.4155C14.9424 25.2083 15.3968 24.9046 15.7795 24.5218L18.6925 21.6082L15.7795 18.6952L12.8664 21.6082L4.12382 12.8657L12.8664 4.12309L18.695 9.95311L12.8659 15.7817L15.7795 18.6952L21.6085 12.8657C21.9913 12.483 22.295 12.0286 22.5022 11.5285C22.7094 11.0285 22.8161 10.4925 22.8161 9.95115C22.8161 9.40984 22.7094 8.87383 22.5022 8.37375C22.295 7.87367 21.9913 7.41931 21.6085 7.03663L15.7795 1.20759C15.3968 0.824746 14.9424 0.52105 14.4423 0.313848C13.9422 0.106647 13.4062 0 12.8649 0C12.3236 0 11.7876 0.106647 11.2875 0.313848C10.7875 0.52105 10.3331 0.824746 9.95041 1.20759Z" fill="#0AE98A"/>
</svg>
