<svg width="20" height="20" viewBox="0 0 20 20" fill="none" xmlns="http://www.w3.org/2000/svg">
<path d="M13.9483 11.2214L13.9462 11.2233L8.94634 15.5981L8.94303 15.601L8.94302 15.601C8.37495 16.0937 7.53754 16.1383 6.9204 15.6894C6.30757 15.2437 6.08256 14.4321 6.38274 13.734L6.38243 13.7348L7.30144 14.1287L6.3831 13.7332L13.9483 11.2214ZM13.9483 11.2214C14.451 10.779 14.6386 10.0653 14.3966 9.42683C14.1582 8.79785 13.5547 8.37698 12.8756 8.37698H12.2142L13.9483 11.2214ZM6.62579 11.625H7.2868L13.1183 6.26678L12.1998 5.87124L13.119 6.26504L13.1188 6.26554C13.4187 5.56754 13.1937 4.75618 12.581 4.31058C11.9638 3.86174 11.1264 3.90633 10.5583 4.399L10.5583 4.39899L10.555 4.40189L5.55519 8.77673L5.55307 8.7786C5.05038 9.22096 4.8628 9.93473 5.10479 10.5732C5.34198 11.199 5.94518 11.625 6.62579 11.625ZM19 10C19 14.9706 14.9706 19 10 19C5.02944 19 1 14.9706 1 10C1 5.02944 5.02944 1 10 1C14.9706 1 19 5.02944 19 10Z" fill="#BECDE2" stroke="#BECDE2" stroke-width="2"/>
</svg>
