<svg width="19" height="20" viewBox="0 0 19 20" fill="none" xmlns="http://www.w3.org/2000/svg">
<g clip-path="url(#clip0_204_47)">
<path d="M14.076 1.7423C14.3137 1.20714 14.1364 0.582141 13.649 0.238391C13.1615 -0.10536 12.4967 -0.0741095 12.0415 0.308703L1.72791 9.0587C1.32504 9.40245 1.18 9.95323 1.36935 10.4376C1.55871 10.922 2.04215 11.2501 2.57798 11.2501H7.07003L3.97192 18.2579C3.73423 18.7931 3.91149 19.4181 4.39897 19.7618C4.88645 20.1056 5.55119 20.0743 6.00644 19.6915L16.32 10.9415C16.7229 10.5978 16.8679 10.047 16.6786 9.56261C16.4892 9.07823 16.0098 8.75402 15.47 8.75402H10.9779L14.076 1.7423Z" fill="#2F2056"/>
</g>
<defs>
<clipPath id="clip0_204_47">
<rect width="18.0488" height="20" fill="white"/>
</clipPath>
</defs>
</svg>
