<svg width="30" height="26" viewBox="0 0 30 26" fill="none" xmlns="http://www.w3.org/2000/svg">
<path d="M10.7407 14.7239C10.8995 14.7607 11.0592 14.7945 11.2167 14.8354C11.3286 14.8645 11.4373 14.9039 11.5479 14.9375C11.7161 14.9886 11.8877 15.0315 12.0525 15.0907C12.3434 15.1952 12.6474 15.2853 12.9363 15.3732C13.1981 15.4528 13.4722 15.7096 13.8096 15.5448C13.8308 15.5345 13.8944 15.5978 13.9583 15.6464C14.0332 15.7063 14.0822 15.7613 14.1447 15.7822C14.1974 15.7998 14.3035 15.754 14.321 15.7774C14.4456 15.9445 14.6229 15.8739 14.7827 15.8815C14.9765 15.9521 15.1697 16.0243 15.3646 16.0924C15.4263 16.1139 15.495 16.1437 15.5562 16.1369C15.8924 16.0998 16.1365 16.2964 16.4025 16.4227C16.5761 16.5052 16.7122 16.6523 16.8762 16.7555C16.945 16.7988 17.0427 16.8033 17.1731 16.8374C17.3128 17.0235 17.484 17.2515 17.6688 17.5048C17.7538 17.6872 17.7509 17.885 17.9628 17.9654C18.0211 18.1405 18.0793 18.3156 18.1226 18.4458C18.1417 18.4419 18.1081 18.4489 18.0745 18.4558C18.0953 18.5341 18.1407 18.6146 18.1326 18.6902C18.1016 18.9805 18.0535 19.2692 17.975 19.5657C17.816 19.7081 17.6497 19.8224 17.6833 20.0311C17.5944 20.1448 17.3255 20.1956 17.5165 20.3956C17.4405 20.452 17.3724 20.5126 17.2942 20.5585C17.0327 20.7122 16.7659 20.8581 16.5061 21.014C16.4718 21.0347 16.4665 21.0964 16.4367 21.1641C16.2537 21.1641 16.0191 21.1491 15.7883 21.1698C15.6508 21.1821 15.5193 21.2505 15.3502 21.2888C15.2062 21.228 15.1495 21.254 15.1521 21.3726C15.1315 21.3747 15.1109 21.3768 15.0737 21.3585C15.0136 21.309 14.9707 21.2557 14.9265 21.2549C14.5638 21.2481 14.2006 21.2466 13.838 21.2566C13.7896 21.2579 13.7435 21.3324 13.6963 21.373C13.6886 21.3748 13.6808 21.3766 13.6534 21.362C13.4819 21.2008 13.3914 21.2086 13.3206 21.3729C13.2856 21.375 13.2506 21.377 13.1981 21.3614C13.1635 21.3188 13.1464 21.2939 13.1293 21.269C13.1147 21.3026 13.1001 21.3362 13.0855 21.3699C13.0526 21.3718 13.0196 21.3737 12.9683 21.3568C12.8869 21.3089 12.8238 21.2548 12.7605 21.2545C11.8038 21.2502 10.847 21.2529 9.89033 21.254C9.78024 21.2527 9.67015 21.2514 9.53662 21.2306C9.3841 21.0662 9.16704 21.0833 9.09251 21.244C6.52466 21.2439 3.95679 21.2451 1.38895 21.2402C1.23632 21.2399 1.08379 21.1915 0.945011 21.1678C0.945011 20.9776 0.939342 20.813 0.949067 20.6492C0.951448 20.609 1.0042 20.5715 1.06713 20.5208C1.13437 20.4417 1.19176 20.3762 1.1976 20.3071C1.21235 20.1323 1.20393 19.9558 1.20479 19.78C1.58005 19.7805 1.95531 19.7811 2.35379 19.8019C2.44259 19.8514 2.50814 19.9059 2.57375 19.906C4.89039 19.908 7.20704 19.905 9.52369 19.9027C9.75712 19.9053 9.99055 19.908 10.2471 19.9309C10.3458 19.9801 10.4211 20.0334 10.497 20.0341C11.2149 20.0401 11.9328 20.037 12.6507 20.0369C13.5267 20.0368 14.4028 20.0347 15.2787 20.0394C15.4336 20.0403 15.4383 19.961 15.4311 19.8596C15.7629 19.7672 16.0601 19.6187 16.2632 19.3546C16.368 19.2182 16.4332 19.0558 16.5141 18.904C16.5434 18.849 16.5661 18.7909 16.5976 18.7215C16.5813 18.7114 16.5323 18.698 16.5261 18.6749C16.3644 18.0688 15.8504 17.7773 15.3026 17.5246C15.1643 17.4608 14.9931 17.4202 14.8408 17.4283C14.601 17.441 14.4248 17.2955 14.2064 17.2627C14.1149 17.2489 14.0373 17.1674 13.9452 17.1428C13.7438 17.0892 13.534 17.0618 13.3332 17.0065C12.9714 16.9069 12.6139 16.7938 12.254 16.6882C12.0712 16.6346 11.885 16.5902 11.704 16.5318C11.5413 16.4794 11.3854 16.4093 11.2232 16.3554C11.1102 16.3179 10.9921 16.2924 10.8752 16.2654C10.5688 16.1945 10.2596 16.1465 9.97554 15.9942C9.80695 15.9038 9.57962 15.9117 9.39614 15.8384C9.03831 15.6954 8.64406 15.6842 8.28491 15.5239C7.95203 15.3752 7.56463 15.3312 7.20327 15.2347C7.13829 15.2174 7.0861 15.1629 7.02283 15.1358C6.891 15.0795 6.75671 15.0276 6.62146 14.9785C6.53321 14.9465 6.44334 14.9139 6.35088 14.8971C6.21834 14.8729 6.07909 14.8756 5.94927 14.844C5.70362 14.7842 5.46223 14.7093 5.21981 14.6385C4.85696 14.5326 4.48245 14.4507 4.13562 14.3108C3.77042 14.1635 3.4165 13.9809 3.0863 13.7748C2.78236 13.5852 2.53764 13.3131 2.22887 13.1323C1.77074 12.8641 1.53171 12.4291 1.1872 12.0758C1.0556 11.9409 0.964976 11.772 0.811799 11.5571C0.7605 11.4513 0.665134 11.2741 0.587958 11.0905C0.501021 10.8836 0.422157 10.673 0.355127 10.46C0.287439 10.2449 0.221931 10.027 0.185942 9.80616C0.147159 9.56815 0.139843 9.32544 0.126348 9.08442C0.118296 8.94061 0.131914 8.79564 0.120982 8.65216C0.116903 8.59863 0.0637821 8.54979 0.0455631 8.49526C0.0244289 8.43201 -0.0195564 8.33932 0.00978723 8.30356C0.18346 8.09195 0.112164 7.8525 0.12363 7.62355C0.136252 7.37149 0.11259 7.12507 0.2422 6.87759C0.332062 6.70601 0.295094 6.48196 0.350112 6.28994C0.411617 6.0753 0.507379 5.8682 0.599712 5.66219C0.63896 5.57462 0.708461 5.49874 0.762366 5.41652C0.991296 5.06733 1.21238 4.71349 1.45294 4.37125C1.51491 4.2831 1.64742 4.23961 1.72835 4.15922C1.77955 4.10837 1.79526 4.02719 1.85985 3.95438C1.93679 3.96023 1.99917 3.99432 2.02192 3.97887C2.26131 3.81636 2.52078 3.66779 2.61171 3.3805C2.77448 3.27193 2.93017 3.15259 3.10159 3.05724C3.38551 2.89932 3.67749 2.75326 3.97035 2.60961C4.08942 2.55121 4.21551 2.49515 4.34577 2.46798C4.59942 2.41508 4.82073 2.2346 5.14695 2.30407C5.30376 2.30482 5.42094 2.316 5.53142 2.29591C5.58358 2.28643 5.62292 2.21703 5.66806 2.17478C5.66806 2.17478 5.66391 2.17368 5.68494 2.17398C5.83651 2.13534 6.03726 2.27599 6.09304 2.04586C6.51528 2.04487 6.93751 2.04388 7.38282 2.0635C7.47339 2.11327 7.5403 2.16624 7.60847 2.16767C7.99835 2.17579 8.38853 2.17167 8.77861 2.17168C10.2609 2.17175 11.7432 2.17255 13.2255 2.17015C13.3214 2.17 13.463 2.22041 13.4629 2.04932C14.7301 2.04711 15.9973 2.04349 17.2644 2.04304C18.7977 2.04249 20.331 2.04462 21.8847 2.06868C21.9105 2.53813 21.916 2.9845 21.9214 3.43087C21.9136 3.45682 21.9058 3.48277 21.8823 3.4929C21.7835 3.45989 21.7004 3.42775 21.6174 3.42767C18.9281 3.42512 16.2389 3.42601 13.5496 3.42564C11.2669 3.42532 8.98414 3.42291 6.70142 3.42673C6.5883 3.42692 6.47528 3.47786 6.36221 3.50516C6.14549 3.53531 5.92299 3.54627 5.71333 3.59986C5.3501 3.69271 4.96178 3.76037 4.64436 3.93287C4.22396 4.16135 3.75105 4.32621 3.40723 4.66557C3.35045 4.72162 3.31598 4.79684 3.25516 4.88697C2.94822 4.82128 2.90803 5.14764 2.73275 5.29739C2.551 5.45267 2.40852 5.65527 2.28198 5.85497C2.12363 6.10485 1.99904 6.37289 1.84012 6.65455C1.61939 6.76937 1.7663 6.93607 1.7242 7.06291C1.69371 7.25468 1.64711 7.44569 1.63648 7.63839C1.62013 7.93472 1.62776 8.23221 1.6266 8.52922C1.62581 8.7304 1.60127 8.9353 1.63416 9.13189C1.68127 9.41349 1.7652 9.69046 1.84463 9.96667C1.90355 10.1715 1.97131 10.3753 2.05407 10.5728C2.08285 10.6415 2.16844 10.6899 2.27562 10.7937C2.26325 11.0677 2.4907 11.3015 2.74397 11.531C2.88875 11.6623 2.97958 11.8474 3.13286 11.9666C3.42938 12.1971 3.78273 12.3702 4.05789 12.6185C4.42566 12.9504 4.90861 13.0215 5.3493 13.1823C5.7351 13.3232 6.14745 13.4026 6.54857 13.5075C7.02101 13.631 7.49966 13.7373 7.96462 13.8812C8.25227 13.9702 8.5165 14.1217 8.79722 14.2323C8.91899 14.2803 9.05553 14.3203 9.18583 14.3215C9.55439 14.325 9.88914 14.4426 10.2476 14.5669C10.4536 14.8183 10.5909 14.8775 10.7407 14.7239ZM18.2139 18.9658C18.1759 18.9551 18.138 18.9444 18.1 18.9336C18.0948 18.9954 18.0896 19.0571 18.0845 19.1189C18.1032 19.1252 18.1219 19.1316 18.1407 19.138C18.1704 19.0991 18.2002 19.0603 18.2139 18.9658Z" fill="#87909D"/>
<path d="M17.1741 23.5897C17.4846 23.4508 17.7934 23.3086 18.1062 23.1742C18.3057 23.0884 18.5312 23.0412 18.709 22.9286C18.9766 22.7591 19.2177 22.5525 19.4604 22.3518C19.6156 22.2234 19.7555 22.079 19.8984 21.9385C20.0625 21.7769 20.2376 21.6222 20.2866 21.3889C20.2959 21.3446 20.3407 21.302 20.3793 21.2684C20.5671 21.1044 20.6616 20.907 20.7078 20.67C20.7476 20.4654 20.8538 20.2718 20.9531 20.0567C21.1681 19.9387 21.0278 19.7739 21.0641 19.6231C21.0628 19.3868 21.0622 19.1703 21.0616 18.9539C21.0657 18.9208 21.0697 18.8878 21.0677 18.8228C21.0651 18.6071 21.0768 18.4232 21.0677 18.2401C21.0644 18.1734 21.0113 18.1088 20.9809 18.0433C20.9144 17.7498 20.8654 17.4517 20.7742 17.1649C20.7272 17.0174 20.7647 16.8344 20.5856 16.7221C20.5399 16.6935 20.5634 16.5807 20.5387 16.5115C20.5163 16.4488 20.4781 16.3884 20.4353 16.3348C20.3101 16.1785 20.0924 16.0353 20.0716 15.8699C20.0437 15.6477 19.8463 15.6101 19.7477 15.4771C19.6206 15.3057 19.4452 15.164 19.2844 15.0152C19.2252 14.9605 19.1482 14.9222 19.0793 14.8764C18.8258 14.7079 18.5777 14.5318 18.3158 14.3752C18.2325 14.3254 18.1076 14.3392 18.0104 14.3037C17.6583 14.175 17.3144 14.0263 16.9585 13.9077C16.7136 13.8261 16.455 13.7785 16.201 13.7219C16.0427 13.6865 15.8769 13.6756 15.7224 13.6306C15.476 13.5588 15.2366 13.4665 14.9932 13.3854C14.7631 13.3087 14.5319 13.2346 14.3007 13.1605C13.9328 13.0425 13.5238 13.05 13.1833 12.8435C13.1189 12.8044 13.0231 12.8118 12.9441 12.7904C12.5645 12.6875 12.1871 12.5774 11.8058 12.4802C11.6736 12.4465 11.5282 12.4559 11.3966 12.4208C11.2986 12.3947 11.2183 12.3156 11.1212 12.2829C10.8559 12.1937 10.5858 12.1165 10.3175 12.0347C10.2118 12.0024 10.1059 11.9706 9.98246 11.911C9.88011 11.851 9.79721 11.813 9.71 11.7877C9.64794 11.7696 9.54767 11.7906 9.52032 11.7563C9.39168 11.5951 9.24227 11.6657 9.09246 11.7014C8.79898 11.6055 8.50577 11.509 8.21183 11.4143C8.1288 11.3876 8.04362 11.3665 7.93727 11.3233C7.87246 11.26 7.83669 11.1894 7.78565 11.1782C7.69255 11.158 7.59039 11.1729 7.49202 11.1731C7.29345 11.1424 7.08816 11.131 6.89831 11.0752C6.72713 11.0248 6.57802 10.9135 6.40923 10.8524C6.30507 10.8147 6.1823 10.8207 6.10575 10.7693C5.8841 10.6109 5.66244 10.4526 5.4327 10.2636C5.38257 9.94529 5.26589 9.81103 5.00158 9.74608C4.92036 9.63163 4.82186 9.52427 4.76227 9.40096C4.6873 9.24583 4.64416 9.07765 4.58792 8.87731C4.58619 8.5632 4.58384 8.28688 4.58148 8.01057C4.6698 7.80879 4.75751 7.60678 4.8469 7.4054C4.86633 7.36162 4.89979 7.32212 4.91308 7.2772C4.98914 7.02015 5.19293 6.85219 5.42831 6.67394C5.51533 6.66045 5.57739 6.66935 5.61941 6.6467C5.76488 6.56829 5.9107 6.48725 6.04136 6.39007C6.10427 6.34328 6.13359 6.25819 6.17811 6.19044C6.44797 6.10557 6.71782 6.0207 7.02933 5.9405C8.35134 5.9416 9.6317 5.93792 10.9121 5.9345C11.3094 5.93344 11.7068 5.93306 12.1042 5.93237C13.4171 5.93342 14.73 5.93351 16.0429 5.93785C16.1232 5.93811 16.2034 5.97196 16.3056 6.01249C16.456 6.04584 16.5844 6.06626 16.7128 6.0665C18.3507 6.0695 19.9886 6.06961 21.6265 6.07045C21.6265 6.07045 21.6324 6.08749 21.6335 6.11642C21.6364 6.40874 21.6382 6.67213 21.6399 6.93552C21.6399 7.10669 21.6399 7.27786 21.6399 7.49231C20.6598 7.50243 19.7111 7.50457 18.7412 7.42841C18.7293 7.25692 18.6121 7.27967 18.5127 7.28142C17.8741 7.29265 17.2355 7.30579 16.5969 7.31592C16.2541 7.32136 15.9111 7.32206 15.5467 7.32206C13.5207 7.32228 11.5161 7.32533 9.51153 7.32839C8.87949 7.32553 8.24745 7.32288 7.61541 7.31973C7.39449 7.31862 7.18926 7.37208 7.00174 7.47707C6.8646 7.55385 6.69625 7.52392 6.56127 7.65498C6.28384 7.92432 6.08097 8.46349 6.22913 8.79375C6.40922 9.1952 6.76447 9.44646 7.18707 9.61189C7.50775 9.73742 7.83951 9.83894 8.19049 9.97094C8.32109 10.0227 8.45317 10.0287 8.52857 10.092C8.67864 10.2181 8.83609 10.1955 9.00386 10.1719C9.21213 10.2292 9.42181 10.2825 9.6284 10.3445C10.1322 10.4958 10.6226 10.7008 11.1746 10.6498C11.1644 10.67 11.1542 10.6901 11.144 10.7102C11.2108 10.7487 11.2728 10.8002 11.3454 10.8233C11.5914 10.9014 11.8577 10.9407 12.0842 11.0507C12.2635 11.1378 12.4362 11.1654 12.6413 11.192C12.8079 11.4458 13.0541 11.3822 13.2796 11.3829C13.6349 11.4851 13.9906 11.5864 14.3453 11.6903C14.4302 11.7151 14.512 11.7488 14.6155 11.7972C14.7044 11.8453 14.7723 11.8762 14.8418 11.9034C14.9065 11.9288 14.9712 11.9593 15.0393 11.9712C15.1221 11.9856 15.2085 11.9829 15.2933 11.9876C15.4798 12.0134 15.6866 11.9444 15.8336 12.141C15.8803 12.2035 16.0462 12.1892 16.1569 12.2125C16.5136 12.2874 16.8174 12.5265 17.2196 12.4775C17.3372 12.4631 17.4689 12.5638 17.597 12.6041C18.1966 12.7926 18.7874 12.997 19.3274 13.3109C19.6635 13.5063 20.0069 13.692 20.2971 13.945C20.5116 14.1319 20.7653 14.2889 20.8809 14.589C21.0939 14.8544 21.3065 15.0874 21.5192 15.3204C21.8707 15.7502 22.1907 16.1922 22.199 16.7604C22.1995 16.7973 22.2341 16.8338 22.2681 16.8991C22.3171 17.0699 22.3508 17.212 22.3847 17.3726C22.4002 17.7255 22.4165 18.0599 22.43 18.3944C22.4335 18.4817 22.4179 18.5758 22.5633 18.5683C22.5658 18.6709 22.5682 18.7734 22.5481 18.8958C22.4941 18.9634 22.4375 19.0099 22.435 19.0588C22.4148 19.4502 22.4036 19.8422 22.3951 20.234C22.3947 20.2551 22.444 20.2772 22.4701 20.2988C22.483 20.3255 22.4958 20.3523 22.4769 20.3852C22.393 20.4346 22.312 20.4701 22.2954 20.5229C22.2707 20.6016 22.2914 20.6924 22.2927 20.778C22.2176 20.9807 22.1425 21.1834 22.0675 21.3862C22.0625 21.3997 22.0533 21.4147 22.0559 21.4273C22.1266 21.7666 21.8292 21.92 21.6168 22.145C21.4681 22.3506 21.3426 22.539 21.2171 22.7275C21.0722 22.9784 20.7534 23.1245 20.6449 23.3572C20.5355 23.592 20.3353 23.6149 20.1726 23.729C19.9621 23.8767 19.7615 24.0372 19.544 24.1753C19.4025 24.2652 19.2397 24.327 19.0844 24.3978C18.8019 24.5267 18.5275 24.678 18.232 24.7735C17.9033 24.8797 17.5548 24.9341 17.172 25.0109C16.9601 25.0115 16.7898 25.0021 16.6226 25.0188C16.5652 25.0245 16.5155 25.0952 16.4622 25.1363C16.2749 25.1534 16.0876 25.1704 15.8614 25.1824C15.7247 25.1657 15.6269 25.1441 15.5291 25.144C10.7783 25.1426 6.02756 25.1429 1.27679 25.1436C1.15985 25.1436 1.04292 25.1503 0.905265 25.1526C0.850517 25.108 0.787647 25.065 0.786995 25.0213C0.78161 24.659 0.787733 24.2965 0.809626 23.933C0.951834 23.9179 1.07478 23.8916 1.19775 23.8916C5.80279 23.8895 10.4078 23.8892 15.0129 23.8917C15.2691 23.8918 15.5255 23.9146 15.7813 23.9329C15.9203 23.9428 15.9645 23.8832 15.9509 23.7671C16.1564 23.736 16.362 23.7049 16.607 23.6729C16.8224 23.6446 16.9982 23.6171 17.1741 23.5897Z" fill="#87909D"/>
<path d="M28.2051 4.58804C28.1456 4.60427 28.0843 4.61639 28.0269 4.6376C27.9159 4.67865 27.8078 4.72618 27.6973 4.76843C27.6044 4.80395 27.5058 4.82857 27.4168 4.87073C27.2175 4.9652 27.2643 5.17851 27.1705 5.31986C27.0543 5.49498 27.0848 5.71914 26.9097 5.87648C26.85 5.93018 26.8788 6.06747 26.8308 6.14714C26.792 6.21486 26.7512 6.28166 26.715 6.35051C26.6327 6.50693 26.5505 6.66347 26.4729 6.82191C26.4489 6.87091 26.4191 6.92934 26.4278 6.97803C26.4611 7.16454 26.3239 7.28139 26.1879 7.32528C26.0523 7.36902 25.8792 7.317 25.7233 7.30058C25.7044 7.29859 25.6704 7.24841 25.6772 7.23483C25.8229 6.94238 25.5237 6.75589 25.4694 6.50952C25.4047 6.21615 25.2644 5.93695 25.1575 5.65139C25.1501 5.63156 25.1568 5.59967 25.1433 5.59048C24.908 5.43061 24.9045 5.16534 24.7905 4.95062C24.765 4.90265 24.6778 4.87712 24.6139 4.85283C24.4157 4.77753 24.2151 4.7076 24.0151 4.63637C24.0011 4.63137 23.9806 4.63762 23.9695 4.63036C23.4946 4.31912 22.8971 4.2942 22.392 4.05534C22.2763 4.00062 22.1735 3.9228 22.0504 3.84676C22.0247 3.52348 22.0259 3.5271 22.4067 3.41776C22.549 3.3769 22.6842 3.31483 22.8607 3.26352C22.9914 3.26164 23.1096 3.29088 23.171 3.24915C23.3101 3.15468 23.6058 3.27329 23.6012 2.98735C23.8314 2.91401 24.0862 2.8761 24.2856 2.7585C24.5456 2.60513 24.8848 2.52478 24.9397 2.13888C24.9729 1.90589 25.1793 1.69741 25.2828 1.46832C25.3838 1.2449 25.4465 1.00704 25.538 0.779648C25.622 0.570972 25.7121 0.363136 25.8207 0.164755C25.8579 0.0968452 25.9591 0.058696 26.0407 0C26.3232 0.127992 26.4154 0.381754 26.5349 0.654639C26.6549 0.928656 26.734 1.20224 26.8061 1.48509C26.8359 1.60166 26.9347 1.70249 26.9969 1.81297C27.1028 2.00105 27.2086 2.18937 27.3051 2.38153C27.3292 2.42953 27.3181 2.49255 27.3233 2.54969C27.6393 2.63775 27.9618 2.67852 28.2124 2.91312C28.313 3.00732 28.5254 2.99196 28.6754 3.05123C29.0538 3.20076 29.4732 3.24588 29.8282 3.46076C29.9701 3.54667 30.0306 3.64488 29.9853 3.77191C29.9519 3.86583 29.8693 3.97532 29.7767 4.01538C29.4723 4.14712 29.1541 4.25209 28.8393 4.36283C28.7901 4.38012 28.7312 4.37386 28.6355 4.37875C28.4384 4.40743 28.1765 4.26826 28.2051 4.58804ZM27.239 3.90579C27.3761 3.84078 27.5133 3.77576 27.6333 3.71887C27.5285 3.66237 27.4348 3.59556 27.3288 3.55848C27.159 3.49906 26.9778 3.46732 26.8078 3.40828C26.706 3.37292 26.5738 3.32883 26.5293 3.25218C26.4007 3.03061 26.3121 2.78955 26.2021 2.55845C26.1727 2.4966 26.1227 2.44305 26.0822 2.38568C26.0233 2.44148 25.9465 2.48862 25.9089 2.55469C25.7911 2.76188 25.6931 2.97865 25.5759 3.18623C25.542 3.24631 25.4789 3.30628 25.4132 3.33485C25.1258 3.45965 24.8324 3.57288 24.5413 3.69032C24.5388 3.70992 24.5363 3.72953 24.5338 3.74914C24.8662 3.88791 25.1986 4.02667 25.5788 4.18541C25.7079 4.48606 25.8615 4.84382 26.0151 5.20157C26.0386 5.20117 26.0621 5.20076 26.0856 5.20036C26.122 5.093 26.1518 4.98328 26.1962 4.87882C26.2725 4.69914 26.3354 4.50986 26.4447 4.34795C26.6147 4.09615 26.929 4.02545 27.239 3.90579Z" fill="#87909D"/>
</svg>
