<svg xmlns:xlink="http://www.w3.org/1999/xlink" xmlns="http://www.w3.org/2000/svg" fill="none" viewBox="0 0 22 22" width="22"  height="22" ><path fill="#D7D9E0" fill-rule="evenodd" d="M3.896 11c0-.38.308-.687.687-.687h12.834a.687.687 0 1 1 0 1.374H4.583A.69.69 0 0 1 3.896 11" clip-rule="evenodd"></path><path fill="#D7D9E0" fill-rule="evenodd" d="M17.903 10.514a.69.69 0 0 1 0 .972l-4.584 4.583a.688.688 0 0 1-.972-.972l4.583-4.583a.69.69 0 0 1 .973 0" clip-rule="evenodd"></path><path fill="#D7D9E0" fill-rule="evenodd" d="M12.347 5.93a.69.69 0 0 1 .972 0l4.584 4.584a.688.688 0 1 1-.973.972l-4.583-4.583a.687.687 0 0 1 0-.973" clip-rule="evenodd"></path></svg>