<svg xmlns:xlink="http://www.w3.org/1999/xlink"   fill="none" viewBox="0 0 19 18" xmlns="http://www.w3.org/2000/svg" width="1"  height="1" ><path fill="#FFFFFF" fill-rule="evenodd" d="M3.688 9c0-.31.251-.562.562-.562h10.5a.562.562 0 1 1 0 1.124H4.25A.563.563 0 0 1 3.688 9" clip-rule="evenodd"></path><path fill="#FFFFFF" fill-rule="evenodd" d="M15.148 8.602c.22.22.22.576 0 .796l-3.75 3.75a.562.562 0 1 1-.796-.796l3.75-3.75c.22-.22.576-.22.796 0" clip-rule="evenodd"></path><path fill="#FFFFFF" fill-rule="evenodd" d="M10.602 4.852c.22-.22.576-.22.796 0l3.75 3.75a.562.562 0 1 1-.796.796l-3.75-3.75a.56.56 0 0 1 0-.796" clip-rule="evenodd"></path></svg>