<svg xmlns:xlink="http://www.w3.org/1999/xlink" xmlns="http://www.w3.org/2000/svg"   fill="none" viewBox="0 0 60 60" width="1"  height="1" ><path fill="#D5AB00" fill-rule="evenodd" d="M14.647 53.33a7.013 7.013 0 1 0-7.978-7.977L5.636 52.23a1.875 1.875 0 0 0 2.133 2.133z" clip-rule="evenodd"></path><circle cx="49.975" cy="45" r="1.875" fill="#0AE98A"></circle><circle cx="22.5" cy="10" r="1.875" fill="#0AE98A"></circle><circle cx="5" cy="35" r="1.875" fill="#0AE98A"></circle><path fill="#0AE98A" fill-rule="evenodd" d="M42.745 30.309A26.02 26.02 0 0 0 52.51 9.992a2.5 2.5 0 0 0-2.501-2.502 26 26 0 0 0-1.427.04 26.02 26.02 0 0 0-18.89 9.725L18.894 30.753a2.5 2.5 0 0 0 .163 3.31l.021.02 6.838 6.84q.128.125.267.23l.01.008c.898.67 2.156.665 3.054-.054zM25.972 43.853l1.338 4.012a4.376 4.376 0 0 0 6.108 2.53l6.043-3.02a4.38 4.38 0 0 0 2.419-3.914v-9.258l-11.071 8.856a5 5 0 0 1-4.837.794m-9.03-14.662a5 5 0 0 0-.795 4.837l-4.012-1.337a4.376 4.376 0 0 1-2.53-6.109l3.02-6.042a4.38 4.38 0 0 1 3.915-2.42h9.258zM40 23.75a3.75 3.75 0 1 0 0-7.5 3.75 3.75 0 0 0 0 7.5" clip-rule="evenodd"></path></svg>