<svg xmlns:xlink="http://www.w3.org/1999/xlink"   fill="none" viewBox="0 0 24 24" xmlns="http://www.w3.org/2000/svg" width="1"  height="1" ><path fill="#D7D9E0" fill-rule="evenodd" d="M12 7.25a.75.75 0 0 1 .75.75v8a.75.75 0 0 1-1.5 0V8a.75.75 0 0 1 .75-.75" clip-rule="evenodd"></path><path fill="#D7D9E0" fill-rule="evenodd" d="M7.25 12a.75.75 0 0 1 .75-.75h8a.75.75 0 0 1 0 1.5H8a.75.75 0 0 1-.75-.75" clip-rule="evenodd"></path><path fill="#D7D9E0" fill-rule="evenodd" d="M12 3.75A8.25 8.25 0 0 0 3.75 12 8.25 8.25 0 0 0 12 20.25 8.25 8.25 0 0 0 20.25 12 8.25 8.25 0 0 0 12 3.75m0-1.5A9.75 9.75 0 0 0 2.25 12 9.75 9.75 0 0 0 12 21.75 9.75 9.75 0 0 0 21.75 12 9.75 9.75 0 0 0 12 2.25" clip-rule="evenodd"></path></svg>