<svg xmlns:xlink="http://www.w3.org/1999/xlink"   fill="none" viewBox="0 0 24 24" xmlns="http://www.w3.org/2000/svg" width="1"  height="1" ><path fill="#87909D" fill-rule="evenodd" d="M2.246 10.999a2.75 2.75 0 0 1 2.75-2.75h14.008a2.75 2.75 0 0 1 2.75 2.75v8.005a2.75 2.75 0 0 1-2.75 2.75H4.996a2.75 2.75 0 0 1-2.75-2.75zm2.75-1.25c-.69 0-1.25.56-1.25 1.25v8.005c0 .69.56 1.25 1.25 1.25h14.008c.69 0 1.25-.56 1.25-1.25v-8.005c0-.69-.56-1.25-1.25-1.25zm-.249-3.752a.75.75 0 0 1 .75-.75h13.006a.75.75 0 0 1 0 1.5H5.497a.75.75 0 0 1-.75-.75m2.001-3a.75.75 0 0 1 .75-.75h10.004a.75.75 0 0 1 0 1.5H7.498a.75.75 0 0 1-.75-.75" clip-rule="evenodd"></path></svg>