<svg xmlns:xlink="http://www.w3.org/1999/xlink"   fill="none" viewBox="0 0 22 23" xmlns="http://www.w3.org/2000/svg" width="1"  height="1" ><path fill="#87909D" fill-rule="evenodd" d="M2.06 10.749a2.52 2.52 0 0 1 2.52-2.521h12.84a2.52 2.52 0 0 1 2.521 2.52v7.339a2.52 2.52 0 0 1-2.52 2.52H4.58a2.52 2.52 0 0 1-2.52-2.52zm2.52-1.146c-.633 0-1.146.513-1.146 1.146v7.338c0 .633.513 1.146 1.146 1.146h12.84c.633 0 1.146-.513 1.146-1.146v-7.338c0-.633-.513-1.146-1.146-1.146zm-.228-3.439c0-.38.307-.687.687-.687h11.922a.687.687 0 1 1 0 1.375H5.039a.69.69 0 0 1-.687-.688m1.834-2.75c0-.38.308-.688.688-.688h9.17a.687.687 0 1 1 0 1.375h-9.17a.69.69 0 0 1-.688-.688" clip-rule="evenodd"></path></svg>