<svg xmlns:xlink="http://www.w3.org/1999/xlink"   fill="none" viewBox="0 0 22 22" xmlns="http://www.w3.org/2000/svg" width="1"  height="1" ><path fill="#6C7583" d="M18.333 1.833H3.667a1.83 1.83 0 0 0-1.825 1.834l-.009 16.5L5.5 16.5h12.833a1.84 1.84 0 0 0 1.834-1.833v-11a1.84 1.84 0 0 0-1.834-1.834m-2.75 11H6.417c-.505 0-.917-.412-.917-.916S5.912 11 6.417 11h9.166c.505 0 .917.412.917.917s-.412.916-.917.916m0-2.75H6.417a.92.92 0 0 1-.917-.916.92.92 0 0 1 .917-.917h9.166a.92.92 0 0 1 .917.917.92.92 0 0 1-.917.916m0-2.75H6.417a.92.92 0 0 1-.917-.916.92.92 0 0 1 .917-.917h9.166a.92.92 0 0 1 .917.917.92.92 0 0 1-.917.916"></path></svg>