<svg xmlns:xlink="http://www.w3.org/1999/xlink"   fill="none" viewBox="0 0 16 16" xmlns="http://www.w3.org/2000/svg" width="1"  height="1" ><path fill="#E9C958" fill-rule="evenodd" d="M8 1.5c-.434 0-.833.242-1.034.627L5.382 5.162l-2.908.49a1.167 1.167 0 0 0-.64 1.967l2.173 2.215-.494 3.327a1.167 1.167 0 0 0 1.674 1.216L8 12.977l2.814 1.4a1.167 1.167 0 0 0 1.673-1.216l-.494-3.327 2.173-2.215a1.167 1.167 0 0 0-.64-1.967l-2.908-.49-1.583-3.035A1.17 1.17 0 0 0 8 1.5" clip-rule="evenodd"></path></svg>