<svg width="21" height="20" viewBox="0 0 21 20" fill="none" xmlns="http://www.w3.org/2000/svg">
<path d="M10.4878 20C4.69493 20 0 15.5234 0 10C0 4.47656 4.69493 0 10.4878 0C16.2807 0 20.9756 4.47656 20.9756 10C20.9756 15.5234 16.2807 20 10.4878 20ZM9.50457 4.6875V10C9.50457 10.3125 9.66844 10.6055 9.94293 10.7812L13.8759 13.2812C14.3265 13.5703 14.9369 13.4531 15.2401 13.0195C15.5433 12.5859 15.4203 12.0078 14.9656 11.7188L11.471 9.5V4.6875C11.471 4.16797 11.0327 3.75 10.4878 3.75C9.94293 3.75 9.50457 4.16797 9.50457 4.6875Z" fill="#492053"/>
</svg>
