<svg width="23" height="20" viewBox="0 0 23 20" fill="none" xmlns="http://www.w3.org/2000/svg">
<g clip-path="url(#clip0_204_657)">
<path d="M15.9214 0H7.00542C5.95063 0 5.09087 0.851563 5.13067 1.88281C5.13863 2.08984 5.1466 2.29688 5.15854 2.5H0.955284C0.425898 2.5 0 2.91797 0 3.4375C0 7.05469 1.33342 9.57031 3.12458 11.2773C4.88787 12.9609 7.03726 13.8086 8.62144 14.2383C9.55285 14.4922 10.1897 15.2539 10.1897 16.0195C10.1897 16.8359 9.51304 17.5 8.68115 17.5H7.64228C6.93775 17.5 6.36856 18.0586 6.36856 18.75C6.36856 19.4414 6.93775 20 7.64228 20H15.2846C15.9891 20 16.5583 19.4414 16.5583 18.75C16.5583 18.0586 15.9891 17.5 15.2846 17.5H14.2457C13.4138 17.5 12.7371 16.8359 12.7371 16.0195C12.7371 15.2539 13.37 14.4883 14.3054 14.2383C15.8935 13.8086 18.0429 12.9609 19.8062 11.2773C21.5934 9.57031 22.9268 7.05469 22.9268 3.4375C22.9268 2.91797 22.5009 2.5 21.9715 2.5H17.7683C17.7802 2.29688 17.7882 2.09375 17.7962 1.88281C17.836 0.851563 16.9762 0 15.9214 0ZM1.94639 4.375H5.30581C5.66802 7.89453 6.46807 10.2461 7.37161 11.8203C6.3805 11.3906 5.34959 10.7852 4.45799 9.93359C3.18428 8.71875 2.14939 6.96484 1.95037 4.375H1.94639ZM18.4728 9.93359C17.5812 10.7852 16.5503 11.3906 15.5592 11.8203C16.4627 10.2461 17.2628 7.89453 17.625 4.375H20.9844C20.7814 6.96484 19.7465 8.71875 18.4768 9.93359H18.4728Z" fill="#143F34"/>
</g>
<defs>
<clipPath id="clip0_204_657">
<rect width="22.9268" height="20" fill="white"/>
</clipPath>
</defs>
</svg>
